<svg width="160" height="160" viewBox="0 0 160 160" fill="none" xmlns="http://www.w3.org/2000/svg">
<path d="M111.996 79.9976C111.996 97.6711 97.6695 111.997 79.9973 111.997C62.3242 111.997 47.9979 97.6711 47.9979 79.9976C47.9979 62.3258 62.3242 47.9995 79.9973 47.9995C97.6695 47.9995 111.996 62.3254 111.996 79.9976Z" fill="white" fill-opacity="0.79"/>
<path d="M79.9972 23.9993C49.0842 24.0346 24.0343 49.0857 23.999 79.9975C24.005 87.8478 25.6783 95.6073 28.9083 102.762C29.8108 104.78 32.1764 105.683 34.1942 104.783C36.2108 103.881 37.1155 101.515 36.213 99.4971C33.443 93.3695 32.0067 86.7233 31.9992 79.9987C31.9992 53.4901 53.4885 31.9996 79.9972 31.9996C106.506 31.9996 127.995 53.4901 127.995 79.9987C127.988 86.7233 126.551 93.3695 123.781 99.4971C122.879 101.515 123.784 103.881 125.8 104.783C127.818 105.683 130.184 104.78 131.086 102.762C134.316 95.6073 135.989 87.8478 135.995 79.9975C135.96 49.0857 110.909 24.0346 79.9972 23.9993Z" fill="white" fill-opacity="0.79"/>
<path d="M79.9973 0.000209846C35.9169 -0.0997898 0.100144 35.5532 0.000144299 79.6324C-0.0364927 95.7884 4.83043 111.575 13.9576 124.906C15.1538 126.763 17.6282 127.298 19.486 126.103C21.3429 124.907 21.8788 122.432 20.6826 120.575C20.6419 120.513 20.6007 120.452 20.5566 120.391C12.385 108.505 8.00724 94.4216 8.00043 79.9977C8.00043 40.2347 40.2344 8.00112 79.9973 8.00112C119.76 8.00112 151.995 40.2347 151.995 79.9977C151.987 94.422 147.608 108.505 139.436 120.391C138.138 122.179 138.536 124.68 140.323 125.978C142.111 127.275 144.613 126.878 145.911 125.09C145.954 125.031 145.996 124.968 146.036 124.906C170.938 88.5342 161.64 38.8613 125.268 13.958C111.938 4.83151 96.1523 -0.0354707 79.9973 0.000209846Z" fill="white" fill-opacity="0.79"/>
<path d="M95.9968 119.996H63.9976C46.3258 119.996 31.9993 134.322 31.9993 151.994V155.994C31.9993 158.204 33.7899 159.995 35.9983 159.995H123.995C126.204 159.995 127.995 158.204 127.995 155.995V151.994C127.995 134.322 113.669 119.996 95.9968 119.996Z" fill="white" fill-opacity="0.79"/>
</svg>
