<svg width="132" height="170" viewBox="0 0 132 170" fill="none" xmlns="http://www.w3.org/2000/svg">
<path fill-rule="evenodd" clip-rule="evenodd" d="M131.786 113.943L110.227 126.392V124.905C110.227 124.258 110.007 123.631 109.603 123.127C109.199 122.623 108.635 122.271 108.004 122.131L99.3223 120.2C98.819 118.712 98.2163 117.26 97.5184 115.853L102.294 108.347C102.641 107.802 102.791 107.155 102.721 106.513C102.651 105.871 102.363 105.272 101.907 104.815L92.6432 95.549C92.186 95.0922 91.5869 94.8049 90.9445 94.7342C90.3022 94.6635 89.6549 94.8138 89.1094 95.1602L81.5988 99.9371C80.1934 99.2394 78.7424 98.6374 77.2559 98.1352L75.3248 89.4519C75.1835 88.8213 74.832 88.2576 74.3279 87.8533C73.8238 87.449 73.1972 87.2282 72.551 87.2273H68.8409V77.7139L131.786 41.3711V113.943ZM66 0L3.05783 36.3385L66.1438 72.7105L129.043 36.3956L66 0ZM23.998 122.131C23.3672 122.271 22.8031 122.623 22.3989 123.127C21.9948 123.631 21.7748 124.258 21.7754 124.905V126.392L0.213654 113.943V41.2579L63.1591 77.5462V87.2246H59.4494C58.8032 87.2255 58.1765 87.4463 57.6724 87.8505C57.1683 88.2548 56.8167 88.8186 56.6756 89.4492L54.7441 98.1352C53.2575 98.6366 51.8065 99.2382 50.4012 99.9358L42.8923 95.1602C42.3463 94.8144 41.699 94.6646 41.0566 94.7355C40.4143 94.8064 39.8152 95.0938 39.3578 95.5503L30.0941 104.816C29.6375 105.273 29.3502 105.872 29.2799 106.515C29.2095 107.157 29.3601 107.804 29.707 108.349L34.4823 115.854C33.7849 117.261 33.1827 118.713 32.68 120.201L23.998 122.131ZM96.4805 137.52L104.544 135.727V127.181L96.4805 125.388C95.9807 125.277 95.5203 125.033 95.1477 124.682C94.7751 124.33 94.5042 123.885 94.3634 123.393C93.7416 121.203 92.867 119.092 91.7573 117.103C91.5082 116.656 91.3844 116.15 91.3988 115.638C91.4132 115.127 91.5654 114.628 91.8393 114.196L96.2779 107.223L90.235 101.178L83.2603 105.613C82.8278 105.889 82.329 106.042 81.8166 106.057C81.3043 106.072 80.7973 105.948 80.3494 105.699C78.3628 104.588 76.2537 103.713 74.0647 103.089C73.5717 102.95 73.1256 102.68 72.774 102.308C72.4224 101.935 72.1785 101.474 72.0682 100.974L70.2709 92.909H61.7291L59.9361 100.974C59.8248 101.474 59.5803 101.935 59.2285 102.307C58.8767 102.68 58.4306 102.95 57.9376 103.089C55.7486 103.714 53.6392 104.589 51.6516 105.699C51.2036 105.948 50.6966 106.072 50.1842 106.057C49.6718 106.042 49.1729 105.889 48.7404 105.613L41.7657 101.178L35.7244 107.223L40.161 114.196C40.435 114.628 40.5872 115.127 40.6017 115.638C40.6162 116.15 40.4924 116.656 40.2433 117.103C39.1348 119.092 38.2602 121.203 37.6372 123.393C37.4964 123.885 37.2254 124.331 36.8528 124.682C36.4801 125.033 36.0196 125.277 35.5199 125.388L27.4565 127.181V135.727L35.5199 137.52C36.0201 137.632 36.4807 137.877 36.8534 138.229C37.226 138.581 37.4968 139.027 37.6372 139.52C38.2596 141.709 39.1342 143.817 40.2433 145.804C40.4924 146.252 40.6162 146.758 40.6017 147.27C40.5872 147.781 40.435 148.28 40.161 148.712L35.7234 155.689L41.7647 161.729L48.7394 157.294C49.172 157.018 49.6712 156.865 50.1839 156.851C50.6966 156.837 51.2035 156.962 51.6506 157.213C53.6377 158.323 55.7473 159.197 57.9366 159.818C58.4297 159.958 58.8758 160.229 59.2277 160.601C59.5795 160.974 59.824 161.435 59.9351 161.935L61.7281 169.999H70.2702L72.0675 161.935C72.1777 161.435 72.4216 160.974 72.7732 160.601C73.1248 160.228 73.5709 159.958 74.064 159.818C76.2532 159.198 78.3623 158.323 80.3487 157.213C80.7958 156.962 81.3027 156.837 81.8153 156.851C82.3279 156.865 82.8271 157.018 83.2596 157.294L90.2343 161.729L96.2773 155.689L91.8387 148.711C91.5648 148.279 91.4126 147.781 91.3981 147.269C91.3837 146.757 91.5076 146.251 91.7567 145.804C92.8651 143.816 93.7397 141.708 94.3628 139.519C94.5031 139.026 94.7738 138.58 95.1464 138.228C95.519 137.876 95.9796 137.631 96.4798 137.519L96.4805 137.52ZM66 109.043C61.5673 109.043 57.2341 110.357 53.5485 112.82C49.8628 115.283 46.9902 118.783 45.2939 122.878C43.5976 126.973 43.1538 131.48 44.0185 135.827C44.8833 140.175 47.0179 144.168 50.1522 147.303C53.2866 150.437 57.2801 152.572 61.6276 153.436C65.9751 154.301 70.4815 153.857 74.5767 152.161C78.672 150.465 82.1723 147.592 84.635 143.906C87.0977 140.221 88.4121 135.888 88.4121 131.455C88.4059 125.513 86.0426 119.816 81.8409 115.614C77.6391 111.412 71.9421 109.049 66 109.043ZM66 148.186C69.3092 148.186 72.5442 147.205 75.296 145.367C78.0478 143.529 80.1927 140.916 81.4594 137.859C82.7261 134.802 83.0578 131.438 82.4125 128.192C81.7672 124.947 80.1739 121.965 77.8341 119.625C75.4943 117.285 72.5131 115.691 69.2675 115.046C66.0219 114.4 62.6577 114.731 59.6004 115.998C56.5431 117.264 53.93 119.409 52.0916 122.16C50.2532 124.912 49.2721 128.147 49.2723 131.456C49.2773 135.891 51.0412 140.143 54.1771 143.279C57.313 146.416 61.5649 148.18 66 148.186Z" fill="white" fill-opacity="0.6"/>
</svg>
