<svg width="24" height="24" viewBox="0 0 24 24" fill="none" xmlns="http://www.w3.org/2000/svg">
<path fill-rule="evenodd" clip-rule="evenodd" d="M12 21C11.4477 21 11 20.5523 11 20V4C11 3.44772 11.4477 3 12 3C12.5523 3 13 3.44772 13 4V20C13 20.5523 12.5523 21 12 21Z" fill="#D7879C"/>
<path fill-rule="evenodd" clip-rule="evenodd" d="M21 12C21 12.5523 20.5523 13 20 13H4C3.44772 13 3 12.5523 3 12C3 11.4477 3.44772 11 4 11H20C20.5523 11 21 11.4477 21 12Z" fill="#D7879C"/>
<rect x="1" y="1" width="22" height="22" rx="11" stroke="#D7879C" stroke-width="2"/>
</svg>
