<svg width="146" height="146" viewBox="0 0 146 146" fill="none" xmlns="http://www.w3.org/2000/svg">
<path d="M50.5 123V110.5C50.5 109.552 51.035 108.687 51.8825 108.262L57.41 105.5L51.8825 102.737C51.4671 102.53 51.1178 102.21 50.8736 101.815C50.6294 101.42 50.5001 100.964 50.5 100.5V93C50.5 91.6225 49.3775 90.5 48 90.5H3C1.6225 90.5 0.5 91.6225 0.5 93V123C0.5 124.377 1.6225 125.5 3 125.5H48C49.3775 125.5 50.5 124.377 50.5 123ZM45.5 120.5H5.5V115.5H45.5V120.5ZM10.5 110.5V105.5H40.5V110.5H10.5ZM45.5 100.5H5.5V95.5H45.5V100.5ZM45.5 28.2L24.5625 44.95C24.1202 45.307 23.5689 45.502 23.0004 45.5025C22.4319 45.5029 21.8804 45.3088 21.4375 44.9525L0.5 28.2V55.5H45.5V28.2Z" fill="white" fill-opacity="0.79"/>
<path d="M40.8725 25.5H5.1275L23 39.7975L40.8725 25.5ZM98 0.5H48C45.12 0.504679 42.3297 1.5017 40.0989 3.32314C37.8681 5.14459 36.3331 7.67917 35.7525 10.5H110.248C109.667 7.67917 108.132 5.14459 105.901 3.32314C103.67 1.5017 100.88 0.504679 98 0.5ZM55.5 123C55.5 127.135 52.135 130.5 48 130.5H35.5V133C35.5 139.893 41.1075 145.5 48 145.5H98C104.893 145.5 110.5 139.893 110.5 133V120.5H55.5V123ZM73 125.5C77.135 125.5 80.5 128.865 80.5 133C80.5 137.135 77.135 140.5 73 140.5C68.865 140.5 65.5 137.135 65.5 133C65.5 128.865 68.865 125.5 73 125.5Z" fill="white" fill-opacity="0.79"/>
<path d="M73 135.5C74.3807 135.5 75.5 134.381 75.5 133C75.5 131.619 74.3807 130.5 73 130.5C71.6193 130.5 70.5 131.619 70.5 133C70.5 134.381 71.6193 135.5 73 135.5Z" fill="white" fill-opacity="0.79"/>
<path d="M125.5 73C129.642 73 133 69.6421 133 65.5C133 61.3579 129.642 58 125.5 58C121.358 58 118 61.3579 118 65.5C118 69.6421 121.358 73 125.5 73Z" fill="white" fill-opacity="0.79"/>
<path d="M138 43H113C108.865 43 105.5 46.365 105.5 50.5V75.5C105.5 79.635 108.865 83 113 83H138C142.135 83 145.5 79.635 145.5 75.5V50.5C145.5 46.365 142.135 43 138 43ZM125.5 78C118.608 78 113 72.3925 113 65.5C113 58.6075 118.608 53 125.5 53C132.392 53 138 58.6075 138 65.5C138 72.3925 132.392 78 125.5 78ZM140.5 53H135.5V48H140.5V53Z" fill="white" fill-opacity="0.79"/>
<path d="M100.5 75.5V50.5C100.505 47.62 101.502 44.8297 103.323 42.5989C105.145 40.368 107.679 38.8331 110.5 38.2525V15.5H35.5V20.5H48C48.663 20.5 49.2989 20.7634 49.7678 21.2322C50.2366 21.7011 50.5 22.337 50.5 23V58C50.5 58.663 50.2366 59.2989 49.7678 59.7678C49.2989 60.2366 48.663 60.5 48 60.5H35.5V85.5H48C52.135 85.5 55.5 88.865 55.5 93V98.955L64.1175 103.265C64.5344 103.471 64.8853 103.79 65.1307 104.185C65.376 104.58 65.5061 105.036 65.5061 105.501C65.5061 105.966 65.376 106.422 65.1307 106.817C64.8853 107.213 64.5344 107.531 64.1175 107.738L55.5 112.045V115.5H110.5V87.7475C107.679 87.1669 105.145 85.632 103.323 83.4011C101.502 81.1703 100.505 78.38 100.5 75.5Z" fill="white" fill-opacity="0.79"/>
</svg>
