<svg width="205" height="50" viewBox="0 0 205 50" fill="none" xmlns="http://www.w3.org/2000/svg">
<path d="M32 0H26V49.9997H32V0Z" fill="#BB2F54"/>
<path d="M19 20H13V50H19V20Z" fill="#BB2F54"/>
<path d="M6 39H0V50H6V39Z" fill="#BB2F54"/>
<path d="M46.6398 4.5C49.6517 4.5 51.1992 6.28967 51.1992 9.4203V10.0327H48.2742V9.22426C48.2742 7.82619 47.708 7.29614 46.7247 7.29614C45.7414 7.29614 45.1773 7.82619 45.1773 9.22426C45.1773 13.2477 51.2266 14.001 51.2266 19.5863C51.2266 22.7149 49.6517 24.5 46.6123 24.5C43.5774 24.5 42 22.7149 42 19.5863V18.3842H44.9255V19.7843C44.9255 21.1804 45.544 21.6811 46.5299 21.6811C47.5132 21.6811 48.1323 21.1804 48.1323 19.7843C48.1323 15.7614 42.0849 15.0075 42.0849 9.4203C42.0849 6.28967 43.6344 4.5 46.6398 4.5Z" fill="white"/>
<path d="M56.6558 18.0789H59.6337L58.1478 8.18833L56.6558 18.0789ZM63.7139 24.281H60.5941L60.0574 20.7315H56.2616L55.7254 24.281H52.8849L56.0347 4.72723H60.5641L63.7139 24.281Z" fill="white"/>
<path d="M65.8484 4.72723H68.9408V21.4874H74.0318V24.281H65.8484V4.72723Z" fill="white"/>
<path d="M79.1792 12.9676H83.4267V15.7612H79.1792V21.4874H84.5225V24.281H76.0869V4.72723H84.5225V7.52085H79.1792V12.9676Z" fill="white"/>
<path d="M91.2999 4.49994C94.3119 4.49994 95.8593 6.28961 95.8593 9.42024V10.0326H92.9343V9.2242C92.9343 7.82612 92.3681 7.29608 91.3869 7.29608C90.4036 7.29608 89.8394 7.82612 89.8394 9.2242C89.8394 13.2476 95.8868 14.001 95.8868 19.5862C95.8868 22.7148 94.3119 24.4999 91.2724 24.4999C88.2371 24.4999 86.6622 22.7148 86.6622 19.5862V18.3841H89.5851V19.7842C89.5851 21.1803 90.2042 21.681 91.192 21.681C92.1753 21.681 92.7924 21.1803 92.7924 19.7842C92.7924 15.7613 86.7471 15.0075 86.7471 9.42024C86.7471 6.28961 88.2946 4.49994 91.2999 4.49994Z" fill="white"/>
<path d="M106.513 4.72723H103.421V24.281H106.513V4.72723Z" fill="white"/>
<path d="M112.226 10.1189V24.281H109.441V4.72723H113.322L116.499 16.4307V4.72723H119.257V24.281H116.079L112.226 10.1189Z" fill="white"/>
<path d="M126.338 4.72723H135.904V7.52085H132.672V24.281H129.575V7.52085H126.338V4.72723Z" fill="white"/>
<path d="M141.046 24.281H137.954V4.72723H141.046V13.104H144.565V4.72723H147.712V24.281H144.565V15.8977H141.046V24.281Z" fill="white"/>
<path d="M153.764 12.9676H158.009V15.7612H153.764V21.4874H159.105V24.281H150.671V4.72723H159.105V7.52085H153.764V12.9676Z" fill="white"/>
<path d="M175.754 16.9886V19.5862C175.754 22.7148 174.177 24.4999 171.142 24.4999C168.102 24.4999 166.53 22.7148 166.53 19.5862V9.42024C166.53 6.28961 168.102 4.49994 171.142 4.49994C174.177 4.49994 175.754 6.28961 175.754 9.42024V11.319H172.829V9.2242C172.829 7.82612 172.21 7.29608 171.227 7.29608C170.239 7.29608 169.622 7.82612 169.622 9.2242V19.7842C169.622 21.1803 170.239 21.681 171.227 21.681C172.21 21.681 172.829 21.1803 172.829 19.7842V16.9886H175.754Z" fill="white"/>
<path d="M181.43 4.72723H178.338V24.281H181.43V4.72723Z" fill="white"/>
<path d="M183.484 4.72723H193.05V7.52085H189.815V24.281H186.72V7.52085H183.484V4.72723Z" fill="white"/>
<path d="M197.999 17.799L194.089 4.72723H197.323L199.685 13.6371L202.05 4.72723H205L201.092 17.799V24.281H197.999V17.799Z" fill="white"/>
<path d="M48.1082 45.5001C47.1651 45.5001 46.3191 45.3391 45.5633 45.0386C44.8067 44.7339 44.1612 44.3093 43.6366 43.7583C43.1013 43.2072 42.6969 42.5642 42.4143 41.8218C42.1376 41.0794 42 40.268 42 39.3852C42 38.1879 42.2411 37.1408 42.7425 36.2169C43.2322 35.2963 43.9267 34.5745 44.8067 34.0579C45.6909 33.5381 46.716 33.2745 47.8803 33.2745C48.2772 33.2745 48.6634 33.3016 49.0363 33.3631C49.4092 33.4182 49.7689 33.4863 50.1003 33.5857C50.4351 33.6818 50.7459 33.7844 51.0285 33.8937C51.3152 34.0029 51.5571 34.1129 51.7676 34.2287L51.6259 35.6732C51.195 35.4195 50.7732 35.2109 50.3622 35.0532C49.9553 34.8964 49.5509 34.7798 49.1573 34.7116C48.7637 34.6426 48.3808 34.5983 48.0079 34.5983C47.1511 34.5983 46.3886 34.8003 45.7149 35.1838C45.052 35.5706 44.5242 36.1208 44.1405 36.8361C43.7609 37.5514 43.567 38.4031 43.567 39.3926C43.567 40.0529 43.664 40.6721 43.8645 41.2502C44.0642 41.8358 44.3576 42.3416 44.752 42.7835C45.1415 43.2318 45.6321 43.5702 46.2155 43.8305C46.7988 44.0769 47.4792 44.2001 48.2491 44.2001C48.5325 44.2001 48.8192 44.1861 49.1018 44.1483C49.3852 44.1105 49.6719 44.0531 49.9445 43.9808C50.2279 43.902 50.5039 43.7993 50.7732 43.6695C51.0458 43.5398 51.3085 43.3887 51.5679 43.2072L51.688 44.6312C51.4535 44.7848 51.195 44.9154 50.9116 45.0246C50.6348 45.1379 50.3382 45.2233 50.0274 45.2915C49.72 45.3597 49.3993 45.4114 49.0819 45.4418C48.757 45.4763 48.4289 45.5001 48.1082 45.5001Z" fill="white"/>
<path d="M55.4887 39.9506V38.7016H61.4096V39.9506H55.4887ZM54.3352 45.3124V33.4933H61.7453V34.7802H54.9775L55.8128 33.7093V45.0866L55.0636 44.0256H61.7659V45.3124H54.3352Z" fill="white"/>
<path d="M69.1452 32.2371C68.4516 32.2371 67.8815 32.1139 67.4257 31.8815C66.9733 31.645 66.6352 31.3271 66.404 30.9231C66.1827 30.5158 66.0651 30.0543 66.0584 29.541L67.2219 29.4999C67.2219 30.0608 67.381 30.5092 67.7158 30.8344C68.0406 31.1522 68.5204 31.3132 69.1452 31.3132C69.7842 31.3132 70.2672 31.1596 70.5813 30.841C70.8995 30.5232 71.0578 30.092 71.0578 29.541H72.2254C72.2254 30.0543 72.1144 30.5158 71.8906 30.9231C71.6694 31.3271 71.3379 31.645 70.8854 31.8815C70.4363 32.1139 69.8529 32.2371 69.1452 32.2371ZM64.4251 45.3118V33.4927H65.9068V42.7422H66.0377L68.624 39.1116C69.2695 38.2181 69.9217 37.3016 70.5813 36.3744C71.2476 35.4399 71.9354 34.4823 72.6431 33.4927H73.9449V45.3118H72.4666V36.0525H72.3423L69.7494 39.6766C68.9588 40.7745 68.2445 41.7773 67.5915 42.6938C66.9385 43.6078 66.3137 44.4799 65.7162 45.3118H64.4251Z" fill="white"/>
<path d="M76.9243 45.4628C76.79 45.4628 76.6591 45.4562 76.5348 45.4422C76.4105 45.4356 76.2895 45.4258 76.1784 45.4044C76.0749 45.3913 75.9713 45.3675 75.8884 45.3535L75.9787 44.0461C76.0964 44.0699 76.2132 44.0839 76.3102 44.0978C76.4171 44.111 76.5066 44.1184 76.5894 44.1184C77.08 44.1184 77.4563 43.9164 77.719 43.5197C77.9775 43.1222 78.1714 42.4932 78.2957 41.6547C78.4233 40.8097 78.5236 39.7347 78.599 38.4314C78.6545 37.6134 78.7067 36.7889 78.7473 35.971C78.7962 35.1465 78.8443 34.3179 78.8998 33.4933H86.6861V45.3124H85.1737V33.7093L85.985 34.7868H79.4559L80.3086 33.798C80.2531 34.643 80.1975 35.4955 80.1495 36.3405C80.0906 37.1856 80.0359 38.0651 79.9663 38.975C79.8909 40.0738 79.808 41.0281 79.7177 41.8428C79.6216 42.6541 79.4766 43.3243 79.276 43.8613C79.0829 44.3984 78.7962 44.7992 78.4233 45.0661C78.0471 45.3264 77.5466 45.4628 76.9243 45.4628Z" fill="white"/>
<path d="M93.1103 45.5002C92.7233 45.5002 92.3471 45.4698 91.9709 45.4181C91.598 45.3598 91.2417 45.2916 90.9036 45.2095C90.5655 45.1208 90.258 45.0247 89.9746 44.9221C89.6954 44.8128 89.4608 44.7102 89.2669 44.5969L89.3912 43.232C89.6747 43.3823 89.9614 43.5194 90.2439 43.6352C90.5274 43.7584 90.8207 43.861 91.1174 43.9472C91.4116 44.0253 91.7082 44.091 92.0157 44.1386C92.3123 44.1797 92.6165 44.2002 92.9239 44.2002C93.6316 44.2002 94.1802 44.1041 94.5879 43.9095C94.9956 43.7173 95.2889 43.4537 95.4613 43.1293C95.6337 42.8041 95.724 42.428 95.724 42.01C95.724 41.2298 95.4546 40.6861 94.9193 40.3848C94.3807 40.0801 93.6034 39.9364 92.5816 39.9364H91.2176V38.7251H92.4366C93.165 38.7251 93.7418 38.6158 94.1735 38.4105C94.6086 38.2052 94.9193 37.935 95.1232 37.6065C95.3163 37.2781 95.4198 36.9184 95.4198 36.5357C95.4198 36.0668 95.2956 35.6865 95.047 35.3925C94.7951 35.1051 94.4702 34.8965 94.0732 34.7659C93.6796 34.6362 93.2413 34.5746 92.7855 34.5746C92.5195 34.5746 92.2568 34.5918 91.9916 34.6362C91.7289 34.6772 91.453 34.7388 91.1729 34.8349C90.8969 34.9302 90.6135 35.0534 90.3202 35.2078C90.0235 35.3646 89.726 35.5494 89.4119 35.7621L89.2189 34.3586C89.4327 34.2223 89.6672 34.0917 89.9332 33.9619C90.1959 33.8322 90.4892 33.7156 90.8074 33.6096C91.1248 33.507 91.4662 33.4355 91.8184 33.3698C92.1814 33.3082 92.5468 33.2746 92.9446 33.2746C93.7418 33.2746 94.4495 33.3978 95.0536 33.6302C95.6544 33.8733 96.1276 34.2083 96.4632 34.6567C96.7938 35.0985 96.967 35.625 96.967 36.2515C96.967 36.9939 96.7598 37.6066 96.3488 38.0788C95.9411 38.5641 95.4339 38.8893 94.8298 39.0708V39.2145C95.2268 39.2934 95.6171 39.4305 95.99 39.635C96.3629 39.8403 96.677 40.145 96.9256 40.5351C97.1667 40.9252 97.2919 41.4557 97.2919 42.1159C97.2919 42.708 97.1535 43.259 96.8908 43.7723C96.6289 44.2856 96.1897 44.7028 95.579 45.0181C94.9707 45.3327 94.1429 45.5002 93.1103 45.5002Z" fill="white"/>
<path d="M99.1873 40.3988V39.1735H104.19V40.3988H99.1873Z" fill="white"/>
<path d="M106.001 45.3124C106.336 44.7786 106.674 44.235 107.02 43.6765C107.368 43.1296 107.727 42.5507 108.111 41.952L109.944 39.0268V39.4677L108.345 37.0493C107.973 36.4908 107.596 35.9266 107.216 35.3584C106.843 34.7868 106.43 34.1676 105.994 33.4933H107.741C108.09 34.0239 108.432 34.5478 108.763 35.0536C109.088 35.5669 109.409 36.0531 109.709 36.5113L110.859 38.2943H111.004L112.137 36.4908C112.427 36.0358 112.741 35.5497 113.055 35.0331C113.376 34.5199 113.705 34.014 114.022 33.4933H115.727C115.334 34.1199 114.951 34.7293 114.592 35.2902C114.229 35.8618 113.898 36.3882 113.587 36.8645L111.874 39.5811V39.0982L113.646 41.6851C114.084 42.315 114.498 42.9202 114.906 43.5058C115.306 44.0839 115.724 44.6899 116.145 45.3124H114.339C113.987 44.7926 113.652 44.2958 113.342 43.831C113.031 43.3621 112.727 42.9071 112.427 42.4792L110.991 40.3408H110.838L109.492 42.4858C109.206 42.9482 108.922 43.4031 108.632 43.858C108.345 44.3097 108.041 44.7926 107.717 45.3124H106.001Z" fill="white"/>
<path d="M119.604 42.342L119.742 41.1652H125.778L125.888 42.342H119.604ZM117.394 45.3124C117.633 44.6825 117.874 44.005 118.13 43.3037C118.382 42.6024 118.627 41.9388 118.862 41.3123L120.347 37.2505C120.602 36.522 120.843 35.8617 121.061 35.2696C121.282 34.6841 121.496 34.092 121.71 33.4933H123.703C123.927 34.0994 124.131 34.6981 124.349 35.2828C124.562 35.8684 124.8 36.5253 125.056 37.2578L126.534 41.3262C126.762 41.9799 127.004 42.6467 127.256 43.3316C127.504 44.0256 127.739 44.6825 127.97 45.3124H126.395C126.158 44.6242 125.909 43.9098 125.66 43.1806C125.405 42.4447 125.166 41.7574 124.946 41.1135L122.767 34.8418H122.629L120.436 41.0487C120.194 41.7229 119.942 42.4316 119.683 43.1666C119.428 43.9098 119.179 44.6242 118.931 45.3124H117.394Z" fill="white"/>
<path d="M130.974 45.3124C131.215 44.8197 131.463 44.3097 131.723 43.7866C131.978 43.2733 132.251 42.719 132.527 42.1474L129.799 36.8982C129.502 36.334 129.226 35.7829 128.953 35.2696C128.684 34.7457 128.37 34.1577 128.021 33.4933H129.731C129.989 34.0033 130.21 34.455 130.403 34.8558C130.604 35.2491 130.794 35.6187 130.96 35.971C131.132 36.3134 131.301 36.6584 131.463 36.9942C131.629 37.3367 131.812 37.7021 132.009 38.1029L133.283 40.6454H133.422L134.609 38.1505C134.802 37.7366 134.989 37.3498 135.158 37.0041C135.323 36.6452 135.486 36.2995 135.648 35.9505C135.814 35.6047 135.997 35.2351 136.183 34.8352C136.37 34.4377 136.587 33.9894 136.819 33.4933H138.466C138.11 34.2021 137.744 34.951 137.361 35.7246C136.974 36.4982 136.629 37.2061 136.308 37.8492L134.45 41.5792C134.171 42.1507 133.867 42.7633 133.538 43.4236C133.214 44.0839 132.9 44.7105 132.599 45.3124H130.974Z" fill="white"/>
<path d="M145.342 45.5002C144.4 45.5002 143.551 45.3393 142.798 45.0387C142.042 44.734 141.392 44.3094 140.868 43.7584C140.336 43.2073 139.932 42.5643 139.649 41.8219C139.369 41.0795 139.228 40.2682 139.228 39.3853C139.228 38.188 139.473 37.1409 139.973 36.2171C140.467 35.2965 141.158 34.5746 142.042 34.058C142.922 33.5382 143.951 33.2746 145.115 33.2746C145.508 33.2746 145.899 33.3017 146.271 33.3633C146.648 33.4183 147 33.4864 147.335 33.5858C147.666 33.6819 147.98 33.7846 148.264 33.8938C148.55 34.003 148.792 34.1131 148.999 34.2289L148.858 35.6734C148.429 35.4196 148.004 35.211 147.597 35.0533C147.186 34.8965 146.786 34.7799 146.392 34.7117C145.991 34.6428 145.612 34.5984 145.239 34.5984C144.386 34.5984 143.623 34.8004 142.95 35.184C142.283 35.5708 141.755 36.121 141.375 36.8362C140.992 37.5515 140.799 38.4032 140.799 39.3928C140.799 40.053 140.895 40.6722 141.096 41.2503C141.299 41.8359 141.589 42.3418 141.983 42.7836C142.373 43.232 142.867 43.5703 143.447 43.8307C144.031 44.077 144.711 44.2002 145.481 44.2002C145.768 44.2002 146.05 44.1862 146.334 44.1484C146.62 44.1107 146.903 44.0532 147.18 43.9809C147.459 43.9021 147.735 43.7994 148.004 43.6697C148.278 43.5399 148.544 43.3888 148.806 43.2073L148.923 44.6313C148.688 44.7849 148.429 44.9155 148.143 45.0247C147.867 45.138 147.57 45.2235 147.266 45.2916C146.952 45.3598 146.634 45.4115 146.313 45.4419C145.985 45.4764 145.664 45.5002 145.342 45.5002Z" fill="white"/>
</svg>
