<svg width="150" height="146" viewBox="0 0 150 146" fill="none" xmlns="http://www.w3.org/2000/svg">
<path d="M122.33 83.4338C99.3535 84.3297 77.6004 90.3043 58.2186 100.206L33.296 114.597C26.7048 118.398 18.2874 116.117 14.5048 109.56L1.8388 87.6276C-1.95194 81.0587 0.307502 72.6272 6.87644 68.8365L27.5249 56.9133C27.8092 56.7491 28.1231 56.6425 28.4486 56.5996C28.7741 56.5568 29.1049 56.5784 29.4221 56.6634C29.7392 56.7484 30.0366 56.895 30.2971 57.0948C30.5575 57.2947 30.7761 57.544 30.9403 57.8283L47.1651 85.9307C47.3324 86.2204 47.5561 86.4737 47.823 86.6754C48.0899 86.8771 48.3946 87.0232 48.719 87.105C49.0435 87.1868 49.381 87.2026 49.7116 87.1516C50.0423 87.1006 50.3593 86.9837 50.644 86.8079C51.8099 86.0891 52.1284 84.5272 51.4434 83.3409L35.1013 55.0354C34.4522 53.911 34.771 52.4757 35.8382 51.7359C52.8847 39.9175 67.3063 24.8649 78.3817 7.30965C82.5774 0.653517 92.3543 0.831647 96.2978 7.65966L130.983 67.7427C134.925 74.556 130.206 83.1275 122.33 83.4338ZM126.781 41.5882C128.065 34.2386 123.757 26.8671 116.795 24.3439C114.606 23.5507 112.621 25.9324 113.784 27.9484C116.554 32.7476 119.334 37.5633 122.145 42.4304C123.32 44.4632 126.376 43.901 126.781 41.5882ZM69.0689 130.051L57.2048 109.455C56.5154 108.259 54.9844 107.848 53.7878 108.539C47.3579 112.248 47.1148 112.392 38.538 117.343C37.342 118.034 36.9308 119.564 37.6214 120.76L49.5058 141.342C51.0293 143.977 53.7691 145.411 56.5591 145.411C59.2655 145.411 60.3005 144.495 66.0938 141.151C69.9752 138.91 71.3096 133.929 69.0689 130.051ZM145.035 22.5788C145.609 22.2473 146.028 21.7013 146.2 21.0608C146.371 20.4203 146.281 19.738 145.95 19.1637C145.618 18.5895 145.072 18.1706 144.432 17.999C143.791 17.8274 143.109 17.9172 142.535 18.2487L136.066 21.9835C133.852 23.2617 134.778 26.6493 137.319 26.6493C138.208 26.649 138.03 26.6233 145.035 22.5788ZM122.046 9.62378L123.624 3.73736C123.709 3.42023 123.73 3.08946 123.687 2.76396C123.645 2.43845 123.538 2.12457 123.374 1.84024C123.21 1.55591 122.991 1.3067 122.731 1.10683C122.47 0.906968 122.173 0.760365 121.856 0.675393C121.539 0.590421 121.208 0.568745 120.882 0.611602C120.557 0.654459 120.243 0.76101 119.959 0.925171C119.674 1.08933 119.425 1.30789 119.225 1.56836C119.025 1.82884 118.879 2.12613 118.794 2.44326L117.216 8.32968C116.792 9.91473 117.986 11.4776 119.633 11.4776C120.183 11.4769 120.717 11.2949 121.154 10.9598C121.59 10.6247 121.903 10.1551 122.046 9.62378ZM149.914 49.274C149.999 48.9569 150.021 48.6261 149.978 48.3006C149.935 47.9751 149.829 47.6612 149.665 47.3769C149.5 47.0926 149.282 46.8433 149.021 46.6435C148.761 46.4436 148.464 46.297 148.147 46.212L142.26 44.6348C141.619 44.4632 140.937 44.553 140.363 44.8846C139.788 45.2161 139.369 45.7622 139.198 46.4027C139.026 47.0431 139.116 47.7256 139.448 48.2998C139.779 48.874 140.325 49.293 140.966 49.4646C147.404 51.1897 147.05 51.1278 147.501 51.1278C148.051 51.1272 148.586 50.9452 149.022 50.6101C149.458 50.275 149.772 49.8054 149.914 49.274Z" fill="white" fill-opacity="0.6"/>
</svg>
