<svg width="150" height="150" viewBox="0 0 150 150" fill="none" xmlns="http://www.w3.org/2000/svg">
<path d="M107 88.8667C100.032 93.752 87.2667 96.3334 75 96.3334C62.7333 96.3334 49.968 93.752 43 88.8667V109.667C43 114.12 55.1733 120.333 75 120.333C94.8267 120.333 107 114.12 107 109.667V88.8667ZM61.6667 111.312C61.5246 111.312 61.3828 111.301 61.2427 111.277C58.4223 110.84 55.634 110.216 52.896 109.411C52.2185 109.207 51.6496 108.743 51.3145 108.119C50.9795 107.496 50.9056 106.766 51.1093 106.088C51.313 105.41 51.7775 104.842 52.4006 104.507C53.0238 104.171 53.7545 104.098 54.432 104.301C56.9424 105.044 59.4991 105.62 62.0853 106.027C62.731 106.149 63.3086 106.506 63.7074 107.028C64.1061 107.551 64.298 108.202 64.2461 108.857C64.1942 109.512 63.9022 110.125 63.4262 110.578C62.9501 111.031 62.3236 111.293 61.6667 111.312ZM77.7413 112.293C76.8373 112.333 75.9253 112.333 75 112.333C74.0747 112.333 73.1627 112.32 72.256 112.293C71.5488 112.283 70.8744 111.993 70.3813 111.486C69.8882 110.979 69.6168 110.297 69.6267 109.589C69.6366 108.882 69.927 108.208 70.4341 107.715C70.9412 107.222 71.6234 106.95 72.3307 106.96H72.4107C74.12 107.013 75.8773 107.013 77.5893 106.96C78.2892 106.965 78.9611 107.235 79.4701 107.715C79.9792 108.196 80.2875 108.851 80.3333 109.549C80.3436 109.9 80.2848 110.248 80.1602 110.576C80.0357 110.903 79.8478 111.203 79.6073 111.458C79.3668 111.713 79.0785 111.918 78.7588 112.061C78.4391 112.204 78.0916 112.283 77.7413 112.293ZM97.1013 109.4C94.3633 110.206 91.575 110.829 88.7547 111.267C88.6146 111.29 88.4727 111.302 88.3307 111.301C87.6615 111.299 87.0177 111.045 86.5271 110.59C86.0364 110.135 85.7348 109.512 85.6821 108.845C85.6294 108.178 85.8294 107.515 86.2425 106.989C86.6556 106.462 87.2515 106.11 87.912 106.003C90.4982 105.596 93.0549 105.02 95.5653 104.277C95.9008 104.177 96.2529 104.143 96.6014 104.178C96.95 104.213 97.2882 104.317 97.5967 104.483C97.9052 104.648 98.1781 104.874 98.3996 105.145C98.6212 105.416 98.7871 105.729 98.888 106.064C98.9889 106.4 99.0226 106.752 98.9874 107.1C98.9522 107.449 98.8487 107.787 98.6828 108.095C98.5169 108.404 98.2919 108.677 98.0205 108.898C97.7491 109.12 97.4368 109.286 97.1013 109.387V109.4ZM149.667 78.2C142.699 83.0854 129.933 85.6667 117.667 85.6667C115.891 85.6667 114.109 85.592 112.333 85.4854V109.485C114.088 109.592 115.864 109.667 117.667 109.667C137.493 109.667 149.667 103.453 149.667 99V78.2ZM139.768 98.7334C137.03 99.539 134.242 100.163 131.421 100.6C131.281 100.623 131.139 100.635 130.997 100.635C130.328 100.632 129.684 100.378 129.194 99.9232C128.703 99.4681 128.401 98.8452 128.349 98.1781C128.296 97.511 128.496 96.8484 128.909 96.322C129.322 95.7955 129.918 95.4436 130.579 95.336C133.165 94.9297 135.722 94.3533 138.232 93.6107C138.91 93.407 139.64 93.4808 140.263 93.8159C140.886 94.151 141.351 94.7198 141.555 95.3974C141.758 96.0749 141.685 96.8056 141.349 97.4287C141.014 98.0519 140.446 98.5163 139.768 98.72V98.7334ZM149.667 48.8667C142.699 53.752 129.933 56.3334 117.667 56.3334C115.891 56.3334 114.109 56.2587 112.333 56.152V80.152C114.109 80.2667 115.891 80.344 117.667 80.344C137.493 80.344 149.667 74.1307 149.667 69.6774V48.8667ZM139.768 69.4C137.03 70.2057 134.242 70.8293 131.421 71.2667C131.281 71.29 131.139 71.3016 130.997 71.3014C130.328 71.2989 129.684 71.0449 129.194 70.5899C128.703 70.1348 128.401 69.5119 128.349 68.8448C128.296 68.1777 128.496 67.5151 128.909 66.9886C129.322 66.4621 129.918 66.1102 130.579 66.0027C133.165 65.5963 135.722 65.02 138.232 64.2774C138.91 64.0737 139.64 64.1475 140.263 64.4825C140.886 64.8176 141.351 65.3865 141.555 66.064C141.758 66.7416 141.685 67.4723 141.349 68.0954C141.014 68.7185 140.446 69.183 139.768 69.3867V69.4Z" fill="white" fill-opacity="0.6"/>
<path d="M43 118.2V139C43 143.453 55.1733 149.667 75 149.667C94.8267 149.667 107 143.453 107 139V118.2C100.032 123.085 87.2667 125.667 75 125.667C62.7333 125.667 49.968 123.085 43 118.2ZM61.6667 140.656C61.5246 140.656 61.3828 140.645 61.2427 140.621C58.4223 140.184 55.634 139.56 52.896 138.755C52.5605 138.654 52.2482 138.488 51.9768 138.266C51.7055 138.045 51.4804 137.772 51.3145 137.463C51.1486 137.155 51.0451 136.817 51.0099 136.468C50.9747 136.12 51.0085 135.768 51.1093 135.432C51.2102 135.097 51.3761 134.784 51.5977 134.513C51.8193 134.242 52.0921 134.017 52.4006 133.851C52.7092 133.685 53.0474 133.581 53.3959 133.546C53.7444 133.511 54.0965 133.545 54.432 133.645C56.9424 134.388 59.4991 134.964 62.0853 135.371C62.7211 135.503 63.2868 135.862 63.6763 136.382C64.0658 136.902 64.2524 137.545 64.201 138.193C64.1497 138.84 63.8639 139.446 63.3973 139.898C62.9306 140.349 62.3153 140.615 61.6667 140.645V140.656ZM87.9093 135.357C90.4956 134.951 93.0522 134.375 95.5627 133.632C95.8981 133.531 96.2502 133.497 96.5988 133.533C96.9473 133.568 97.2855 133.671 97.594 133.837C97.9026 134.003 98.1754 134.228 98.397 134.5C98.6185 134.771 98.7845 135.083 98.8853 135.419C98.9862 135.754 99.02 136.106 98.9848 136.455C98.9496 136.803 98.8461 137.142 98.6801 137.45C98.5142 137.759 98.2892 138.032 98.0178 138.253C97.7465 138.475 97.4341 138.641 97.0987 138.741C94.3607 139.547 91.5723 140.171 88.752 140.608C88.6119 140.631 88.4701 140.643 88.328 140.643C87.6588 140.64 87.015 140.386 86.5244 139.931C86.0337 139.476 85.7321 138.853 85.6794 138.186C85.6267 137.519 85.8268 136.857 86.2398 136.33C86.6529 135.804 87.2488 135.452 87.9093 135.344V135.357ZM80.3333 138.883C80.3436 139.233 80.2848 139.582 80.1602 139.909C80.0357 140.237 79.8478 140.537 79.6073 140.791C79.3668 141.046 79.0785 141.251 78.7588 141.394C78.4391 141.538 78.0942 141.617 77.744 141.627C76.8373 141.667 75.9253 141.667 75 141.667C74.0747 141.667 73.1627 141.653 72.256 141.627C71.5488 141.617 70.8744 141.326 70.3813 140.819C69.8882 140.312 69.6168 139.63 69.6267 138.923C69.6366 138.216 69.927 137.541 70.4341 137.048C70.9412 136.555 71.6234 136.284 72.3307 136.293H72.4107C74.12 136.347 75.8773 136.347 77.5893 136.293C78.2888 136.3 78.9601 136.57 79.4688 137.05C79.9776 137.53 80.2863 138.185 80.3333 138.883ZM107 59.5334C100.032 64.4188 87.2667 67.0001 75 67.0001C62.7333 67.0001 49.968 64.4188 43 59.5334V80.3334C43 84.7868 55.1733 91.0001 75 91.0001C94.8267 91.0001 107 84.7868 107 80.3334V59.5334ZM61.6667 81.9788C61.5246 81.979 61.3828 81.9674 61.2427 81.9441C58.4223 81.5066 55.634 80.8831 52.896 80.0774C52.5605 79.9766 52.2482 79.8106 51.9768 79.5891C51.7055 79.3675 51.4804 79.0947 51.3145 78.7861C51.1486 78.4776 51.0451 78.1394 51.0099 77.7908C50.9747 77.4423 51.0085 77.0902 51.1093 76.7548C51.2102 76.4193 51.3761 76.1069 51.5977 75.8356C51.8193 75.5642 52.0921 75.3392 52.4006 75.1733C52.7092 75.0074 53.0474 74.9039 53.3959 74.8686C53.7444 74.8334 54.0965 74.8672 54.432 74.9681C56.9424 75.7107 59.4991 76.287 62.0853 76.6934C62.731 76.816 63.3086 77.1728 63.7074 77.6951C64.1061 78.2175 64.298 78.8687 64.2461 79.5238C64.1942 80.179 63.9022 80.7919 63.4262 81.2449C62.9501 81.698 62.3236 81.9593 61.6667 81.9788ZM77.7413 82.9601C75.9124 83.014 74.0823 83.014 72.2533 82.9601C71.5461 82.9502 70.8717 82.6597 70.3786 82.1526C69.8856 81.6455 69.6141 80.9633 69.624 80.2561C69.6339 79.5488 69.9243 78.8745 70.4314 78.3814C70.9385 77.8883 71.6208 77.6169 72.328 77.6268H72.408C74.1173 77.6801 75.8747 77.6801 77.5867 77.6268C78.2872 77.6307 78.9601 77.9001 79.4698 78.3806C79.9796 78.8611 80.2881 79.517 80.3333 80.2161C80.3436 80.5663 80.2848 80.9151 80.1602 81.2426C80.0357 81.5701 79.8478 81.8698 79.6073 82.1247C79.3668 82.3795 79.0785 82.5845 78.7588 82.7278C78.4391 82.8711 78.0916 82.9501 77.7413 82.9601ZM97.1013 80.0668C94.3633 80.8724 91.575 81.496 88.7547 81.9334C88.6145 81.9568 88.4727 81.9684 88.3307 81.9681C87.6615 81.9656 87.0177 81.7117 86.527 81.2566C86.0364 80.8015 85.7348 80.1786 85.6821 79.5115C85.6294 78.8444 85.8294 78.1818 86.2425 77.6553C86.6556 77.1289 87.2515 76.7769 87.912 76.6694C90.4982 76.263 93.0549 75.6867 95.5653 74.9441C95.9008 74.8432 96.2529 74.8094 96.6014 74.8446C96.95 74.8799 97.2882 74.9834 97.5967 75.1493C97.9052 75.3152 98.1781 75.5402 98.3996 75.8116C98.6212 76.0829 98.7871 76.3953 98.888 76.7308C98.9889 77.0662 99.0226 77.4183 98.9874 77.7668C98.9522 78.1154 98.8487 78.4536 98.6828 78.7621C98.5169 79.0707 98.2918 79.3435 98.0205 79.5651C97.7491 79.7866 97.4368 79.9526 97.1013 80.0534V80.0668ZM0.333328 69.6667C0.333328 74.1201 12.5067 80.3334 32.3333 80.3334C34.1093 80.3334 35.8907 80.2561 37.6667 80.1414V56.1414C35.8907 56.2481 34.1093 56.3227 32.3333 56.3227C20.0667 56.3227 7.30133 53.7414 0.333328 48.8561V69.6667ZM8.44533 66.0747C8.54607 65.7392 8.71196 65.4268 8.93349 65.1554C9.15503 64.8839 9.42788 64.6589 9.73645 64.4929C10.045 64.327 10.3833 64.2235 10.7318 64.1884C11.0804 64.1532 11.4325 64.1871 11.768 64.2881C14.2784 65.0307 16.8351 65.607 19.4213 66.0134C20.082 66.121 20.6781 66.4731 21.0912 66.9999C21.5043 67.5266 21.7041 68.1895 21.6511 68.8568C21.598 69.5241 21.2959 70.1471 20.8048 70.6019C20.3137 71.0568 19.6694 71.3103 19 71.3121C18.8579 71.3124 18.7161 71.3008 18.576 71.2774C15.7556 70.84 12.9673 70.2164 10.2293 69.4107C9.89253 69.3098 9.57901 69.1433 9.30683 68.9207C9.03464 68.6981 8.80916 68.4239 8.64335 68.1139C8.47754 67.8038 8.37469 67.464 8.3407 67.1141C8.30672 66.7641 8.34228 66.4109 8.44533 66.0747Z" fill="white" fill-opacity="0.6"/>
<path d="M75 61.6667C92.6731 61.6667 107 56.8911 107 51C107 45.109 92.6731 40.3334 75 40.3334C57.3269 40.3334 43 45.109 43 51C43 56.8911 57.3269 61.6667 75 61.6667Z" fill="white" fill-opacity="0.6"/>
<path d="M0.333328 99C0.333328 103.453 12.5067 109.667 32.3333 109.667C34.136 109.667 35.912 109.592 37.6667 109.485V85.4853C35.8907 85.592 34.1093 85.6667 32.3333 85.6667C20.0667 85.6667 7.30133 83.0853 0.333328 78.2V99ZM8.44533 95.408C8.54607 95.0724 8.71196 94.76 8.93349 94.4886C9.15503 94.2172 9.42788 93.9921 9.73645 93.8262C10.045 93.6602 10.3833 93.5568 10.7318 93.5216C11.0804 93.4865 11.4325 93.5204 11.768 93.6213C14.2784 94.3639 16.8351 94.9403 19.4213 95.3467C20.082 95.4542 20.6781 95.8064 21.0912 96.3331C21.5043 96.8599 21.7041 97.5228 21.6511 98.1901C21.598 98.8574 21.2959 99.4803 20.8048 99.9352C20.3137 100.39 19.6694 100.644 19 100.645C18.8579 100.646 18.7161 100.634 18.576 100.611C15.7556 100.173 12.9673 99.5496 10.2293 98.744C9.89253 98.6431 9.57901 98.4765 9.30683 98.2539C9.03464 98.0314 8.80916 97.7572 8.64335 97.4471C8.47754 97.1371 8.37469 96.7973 8.3407 96.4473C8.30672 96.0974 8.34228 95.7442 8.44533 95.408ZM0.333328 40.3333C0.333328 44.7867 12.5067 51 32.3333 51C34.1173 51 35.9067 50.92 37.688 50.8053C37.8853 42.576 50.2 37.4 64.3333 35.6533V19.5333C57.3653 24.4187 44.6 27 32.3333 27C20.0667 27 7.30133 24.4187 0.333328 19.5333V40.3333ZM29.6667 37.6267H29.7467C31.456 37.68 33.2133 37.68 34.9253 37.6267C35.6253 37.6307 36.2976 37.9003 36.8065 38.3809C37.3153 38.8615 37.6228 39.5174 37.6667 40.216C37.677 40.5662 37.6181 40.9151 37.4936 41.2425C37.369 41.57 37.1811 41.8697 36.9406 42.1246C36.7002 42.3794 36.4118 42.5844 36.0921 42.7277C35.7724 42.8711 35.4276 42.95 35.0773 42.96C34.1707 43 33.2587 43 32.3333 43C31.408 43 30.496 43 29.5893 42.96C28.8821 42.9501 28.2077 42.6596 27.7146 42.1525C27.2215 41.6454 26.9501 40.9632 26.96 40.256C26.9699 39.5488 27.2603 38.8744 27.7674 38.3813C28.2745 37.8882 28.9568 37.6168 29.664 37.6267H29.6667ZM8.448 36.7413C8.54874 36.4058 8.71462 36.0934 8.93616 35.8219C9.15769 35.5505 9.43054 35.3254 9.73911 35.1595C10.0477 34.9936 10.3859 34.8901 10.7345 34.8549C11.0831 34.8198 11.4352 34.8537 11.7707 34.9547C14.2811 35.6973 16.8378 36.2736 19.424 36.68C20.0849 36.7876 20.6812 37.14 21.0943 37.667C21.5073 38.194 21.707 38.8572 21.6536 39.5247C21.6002 40.1922 21.2976 40.8152 20.806 41.2698C20.3143 41.7245 19.6696 41.9775 19 41.9787C18.8579 41.9789 18.7161 41.9673 18.576 41.944C15.7556 41.5066 12.9673 40.883 10.2293 40.0773C9.89253 39.9764 9.57901 39.8098 9.30683 39.5873C9.03464 39.3647 8.80916 39.0905 8.64335 38.7804C8.47754 38.4704 8.37469 38.1306 8.3407 37.7807C8.30672 37.4307 8.34228 37.0775 8.44533 36.7413H8.448Z" fill="white" fill-opacity="0.6"/>
<path d="M32.3333 21.6667C50.0064 21.6667 64.3333 16.8911 64.3333 11C64.3333 5.109 50.0064 0.333374 32.3333 0.333374C14.6602 0.333374 0.333328 5.109 0.333328 11C0.333328 16.8911 14.6602 21.6667 32.3333 21.6667Z" fill="white" fill-opacity="0.6"/>
<path d="M117.667 21.6667C135.34 21.6667 149.667 16.8911 149.667 11C149.667 5.109 135.34 0.333374 117.667 0.333374C99.9936 0.333374 85.6667 5.109 85.6667 11C85.6667 16.8911 99.9936 21.6667 117.667 21.6667Z" fill="white" fill-opacity="0.6"/>
<path d="M149.667 19.5333C142.699 24.4187 129.933 27 117.667 27C105.4 27 92.6347 24.4187 85.6667 19.5333V35.664C99.8 37.4 112.115 42.5973 112.312 50.816C114.095 50.9293 115.88 50.9907 117.667 51C137.493 51 149.667 44.7867 149.667 40.3333V19.5333ZM120.411 42.96C119.504 43 118.592 43 117.667 43C116.741 43 115.829 43 114.923 42.96C114.572 42.95 114.228 42.871 113.908 42.7277C113.588 42.5844 113.3 42.3794 113.059 42.1246C112.819 41.8697 112.631 41.57 112.506 41.2425C112.382 40.9151 112.323 40.5662 112.333 40.216C112.38 39.5178 112.688 38.863 113.197 38.3828C113.706 37.9026 114.378 37.6325 115.077 37.6267C116.787 37.68 118.544 37.68 120.256 37.6267H120.333C121.041 37.6168 121.723 37.8882 122.23 38.3813C122.737 38.8744 123.027 39.5487 123.037 40.256C123.047 40.9632 122.776 41.6454 122.283 42.1525C121.79 42.6596 121.118 42.9501 120.411 42.96ZM139.768 40.0667C137.03 40.8723 134.242 41.4959 131.421 41.9333C131.281 41.9567 131.139 41.9683 130.997 41.968C130.328 41.9655 129.684 41.7116 129.194 41.2565C128.703 40.8014 128.401 40.1785 128.349 39.5114C128.296 38.8443 128.496 38.1817 128.909 37.6553C129.322 37.1288 129.918 36.7769 130.579 36.6693C133.165 36.263 135.722 35.6866 138.232 34.944C138.567 34.8431 138.92 34.8093 139.268 34.8446C139.617 34.8798 139.955 34.9833 140.263 35.1492C140.572 35.3151 140.845 35.5401 141.066 35.8115C141.288 36.0828 141.454 36.3952 141.555 36.7307C141.656 37.0661 141.689 37.4182 141.654 37.7667C141.619 38.1153 141.515 38.4535 141.349 38.762C141.184 39.0706 140.959 39.3434 140.687 39.565C140.416 39.7865 140.103 39.9525 139.768 40.0533V40.0667Z" fill="white" fill-opacity="0.6"/>
</svg>
